<?xml version="1.0" encoding="utf-8"?>
<!-- Generator: Adobe Illustrator 24.1.0, SVG Export Plug-In . SVG Version: 6.00 Build 0)  -->
<svg version="1.1" id="レイヤー_1" xmlns="http://www.w3.org/2000/svg" xmlns:xlink="http://www.w3.org/1999/xlink" x="0px"
	 y="0px" viewBox="0 0 215 40" style="enable-background:new 0 0 215 40;" xml:space="preserve">
<style type="text/css">
	.st0{fill:#70C08D;}
</style>
<g>
	<path class="st0" d="M7.9,17.7v-3.6c1.8,0,3-0.2,3.6-0.6c1.1-0.7,1.6-1.8,1.6-3.3c0-1.2-0.4-2.1-1.2-2.9c-0.8-0.8-1.8-1.1-3-1.1
		C7.8,6.2,6.9,6.5,6.2,7C5.6,7.6,5.2,8.6,4.9,9.9H0.7C1.1,7.3,2,5.4,3.4,4.2C4.7,3,6.6,2.4,9,2.4c2.4,0,4.4,0.7,5.9,2.1
		c1.5,1.4,2.3,3.2,2.3,5.5c0,2.5-1,4.5-3,5.9c2.3,1.3,3.4,3.5,3.4,6.6c0,2.5-0.8,4.5-2.5,6.1c-1.7,1.6-3.8,2.4-6.4,2.4
		c-3.3,0-5.8-1.2-7.4-3.7c-0.7-1-1.1-2.4-1.3-4.3h4c0.2,1.3,0.7,2.4,1.6,3.1c0.8,0.7,1.9,1.1,3.2,1.1c1.3,0,2.5-0.4,3.3-1.3
		c0.9-0.9,1.3-2.1,1.3-3.5c0-1.9-0.7-3.2-2-4C10.7,17.9,9.5,17.7,7.9,17.7z"/>
	<path class="st0" d="M23.7,6.8h-4.8l2.3-3.9h6.7v27.6h-4.2V6.8z"/>
	<path class="st0" d="M32.8,16.5c0-4.4,1-7.9,3.1-10.5c1.8-2.4,4.1-3.6,6.7-3.6c2.6,0,4.8,1.2,6.7,3.6c2.1,2.6,3.1,6.2,3.1,10.7
		c0,4.5-1,8.1-3.1,10.7c-1.8,2.4-4.1,3.6-6.7,3.6c-2.6,0-4.8-1.2-6.7-3.6C33.8,24.8,32.8,21.2,32.8,16.5z M36.9,16.5
		c0,3.1,0.5,5.6,1.6,7.6c1.1,2,2.4,3,4.1,3c1.6,0,3-1,4.1-3c1.1-2,1.6-4.5,1.6-7.5c0-3-0.5-5.5-1.6-7.5c-1.1-2-2.4-3-4.1-3
		c-1.6,0-3,1-4,3C37.4,11.1,36.9,13.6,36.9,16.5z"/>
	<path class="st0" d="M72.6,0l3.3,1.5L60.1,38.1l-3.3-1.5L72.6,0z"/>
	<path class="st0" d="M80.3,21.7c0-2.5,0.9-4.7,2.7-6.4c1.8-1.8,4-2.6,6.6-2.6c2.6,0,4.8,0.9,6.6,2.7c1.8,1.8,2.7,4,2.7,6.5
		c0,2.6-0.9,4.8-2.7,6.6c-1.8,1.8-4,2.6-6.7,2.6c-2.6,0-4.8-0.9-6.6-2.7C81.2,26.6,80.3,24.4,80.3,21.7z M84.4,21.8
		c0,1.7,0.5,3.1,1.4,4.1c1,1,2.2,1.5,3.8,1.5c1.6,0,2.8-0.5,3.8-1.5c0.9-1,1.4-2.4,1.4-4.1c0-1.7-0.5-3-1.4-4.1
		c-1-1-2.2-1.5-3.8-1.5c-1.5,0-2.8,0.5-3.7,1.5C84.9,18.8,84.4,20.1,84.4,21.8z"/>
	<path class="st0" d="M105.7,13.1v10c0,2.9,1.1,4.3,3.4,4.3c2.3,0,3.4-1.4,3.4-4.3v-10h4v10.1c0,1.4-0.2,2.6-0.5,3.6
		c-0.3,0.9-0.9,1.7-1.7,2.5c-1.4,1.2-3.1,1.8-5.2,1.8c-2.1,0-3.8-0.6-5.2-1.8c-0.8-0.7-1.4-1.5-1.8-2.5c-0.3-0.8-0.5-2-0.5-3.6V13.1
		H105.7z"/>
	<path class="st0" d="M125.8,16.9v13.7h-4V16.9H120v-3.8h1.7V6.7h4v6.4h3.1v3.8H125.8z"/>
	<path class="st0" d="M135.7,40h-4V13.1h4V15c1.6-1.6,3.4-2.4,5.4-2.4c2.4,0,4.4,0.9,5.9,2.6c1.6,1.8,2.4,4,2.4,6.6
		c0,2.6-0.8,4.8-2.3,6.5c-1.6,1.7-3.5,2.6-5.9,2.6c-2,0-3.9-0.8-5.5-2.5V40z M145.2,21.9c0-1.7-0.5-3-1.4-4.1
		c-0.9-1.1-2.1-1.6-3.5-1.6c-1.5,0-2.7,0.5-3.6,1.5c-0.9,1-1.4,2.4-1.4,4c0,1.6,0.5,3,1.4,4c0.9,1,2.1,1.6,3.6,1.6
		c1.4,0,2.5-0.5,3.5-1.6C144.8,24.8,145.2,23.5,145.2,21.9z"/>
	<path class="st0" d="M156.2,13.1v10c0,2.9,1.1,4.3,3.4,4.3c2.3,0,3.4-1.4,3.4-4.3v-10h4v10.1c0,1.4-0.2,2.6-0.5,3.6
		c-0.3,0.9-0.9,1.7-1.7,2.5c-1.4,1.2-3.1,1.8-5.2,1.8c-2.1,0-3.8-0.6-5.2-1.8c-0.8-0.7-1.4-1.5-1.8-2.5c-0.3-0.8-0.5-2-0.5-3.6V13.1
		H156.2z"/>
	<path class="st0" d="M176.3,16.9v13.7h-4V16.9h-1.7v-3.8h1.7V6.7h4v6.4h3.1v3.8H176.3z"/>
	<path class="st0" d="M186.8,0l3.7,1.4c-1.3,3.1-2.2,6-2.7,8.6c-0.3,1.3-0.5,2.7-0.6,4.2c-0.1,1.5-0.2,3.1-0.2,4.8
		c0,1.8,0.1,3.4,0.2,4.8c0.1,1.5,0.3,2.9,0.6,4.2c0.5,2.6,1.4,5.5,2.7,8.6l-3.7,1.4c-2.6-5.5-3.9-11.8-3.9-19.1
		C182.9,11.8,184.2,5.5,186.8,0z"/>
	<path class="st0" d="M204.2,16.1l-3.3,1.8c-0.5-1.1-1.2-1.6-1.9-1.6c-0.4,0-0.7,0.1-0.9,0.4c-0.3,0.2-0.4,0.6-0.4,0.9
		c0,0.7,0.8,1.3,2.3,2c2.1,0.9,3.6,1.8,4.3,2.5c0.7,0.8,1.1,1.8,1.1,3.1c0,1.7-0.6,3.1-1.9,4.2c-1.2,1.1-2.7,1.6-4.4,1.6
		c-2.9,0-5-1.4-6.2-4.3l3.4-1.6c0.5,0.8,0.8,1.4,1.1,1.6c0.5,0.5,1.1,0.7,1.8,0.7c1.4,0,2-0.6,2-1.9c0-0.7-0.5-1.4-1.6-2
		c-0.4-0.2-0.8-0.4-1.2-0.6c-0.4-0.2-0.8-0.4-1.2-0.6c-1.2-0.6-2-1.1-2.5-1.7c-0.6-0.7-0.9-1.7-0.9-2.8c0-1.5,0.5-2.8,1.6-3.8
		c1.1-1,2.3-1.5,3.9-1.5C201.5,12.6,203.1,13.8,204.2,16.1z"/>
	<path class="st0" d="M211.1,38.2l-3.7-1.4c1.3-3.1,2.2-6,2.7-8.6c0.5-2.6,0.8-5.6,0.8-9.1c0-3.4-0.3-6.4-0.8-9
		c-0.5-2.6-1.4-5.5-2.7-8.6l3.7-1.4c2.6,5.5,3.9,11.8,3.9,19.1C215,26.4,213.7,32.7,211.1,38.2z"/>
</g>
</svg>
